<svg width="95" height="72" viewBox="0 0 95 72" fill="none" xmlns="http://www.w3.org/2000/svg">
<g filter="url(#filter0_di_12_34)">
<path d="M50.1454 61.5663C49.2044 62.0687 48.0901 62.1558 46.8024 61.8276C45.5148 61.4993 44.1617 60.8675 42.7432 59.9319C41.3248 58.9964 39.9401 57.8977 38.5893 56.6359C37.2385 55.3741 36.0006 54.0519 34.8756 52.6695C33.7882 51.267 32.923 49.9636 32.28 48.7591L32.2498 48.7027C32.1493 48.5145 32.1355 48.3526 32.2082 48.217C32.2608 48.0438 32.2959 47.9284 32.3135 47.8707C32.4388 47.5619 32.8377 47.1313 33.5101 46.5788C35.4545 45.057 37.3399 43.47 39.1663 41.8177C41.0304 40.1454 42.5831 38.2523 43.8245 36.1385C45.0458 33.9871 45.7237 31.4971 45.8579 28.6684C45.8876 27.6369 45.7015 26.7448 45.2996 25.992C44.7972 25.051 43.9813 24.5193 42.8518 24.3968C41.7399 24.2166 40.4637 24.3176 39.0233 24.6997C37.6003 25.0241 36.1624 25.5016 34.7095 26.1322C34.6394 26.3631 34.5328 26.6618 34.3899 27.0283C34.2847 27.3747 34.207 27.6822 34.1569 27.9508C33.7008 29.4518 33.1971 31.3168 32.646 33.5458C32.0948 35.7747 31.5864 38.1743 31.1207 40.7446C30.6349 43.2772 30.2733 45.816 30.036 48.3611C29.7987 50.9061 29.7671 53.2929 29.9413 55.5216C30.1531 57.7301 30.6709 59.606 31.4948 61.1491C31.8565 61.8266 32.3111 62.4062 32.8584 62.8878C33.3857 63.3318 34.0834 63.3704 34.9516 63.0036C34.8413 63.1593 34.7108 63.2773 34.5603 63.3577C34.0333 63.639 33.4235 63.6744 32.7307 63.4639C32.0178 63.2157 31.3588 62.8421 30.7537 62.3429C30.1285 61.806 29.6753 61.2742 29.3939 60.7472C28.7308 59.5052 28.2771 57.8853 28.0327 55.8876C27.7884 53.8899 27.7009 51.6876 27.7701 49.2807C27.8192 46.8361 28.0101 44.34 28.3428 41.7924C28.693 39.1871 29.1411 36.6746 29.6872 34.2549C30.2333 31.8352 30.8234 29.6338 31.4575 27.6508C29.7086 28.6329 27.6887 29.8322 25.3979 31.2488C23.1246 32.6076 20.8464 34.1383 18.5632 35.8409C16.2599 37.506 14.1977 39.26 12.3764 41.103C10.5726 42.8882 9.26578 44.6984 8.45592 46.5334C8.25784 46.9777 8.14764 47.496 8.12531 48.0884C8.14062 48.6606 8.26885 49.1725 8.50999 49.6242C8.75113 50.0758 9.08381 50.3819 9.50804 50.5423C9.62351 50.5774 9.70133 50.6326 9.74152 50.7079C9.80181 50.8208 9.76672 50.9363 9.63626 51.0543C9.54344 51.1522 9.44935 51.2024 9.35398 51.205C8.83693 51.1425 8.22196 50.9871 7.50907 50.739C6.83381 50.4707 6.21501 50.1723 5.65267 49.8438C5.07024 49.4776 4.69864 49.144 4.53788 48.8429C4.0355 47.9019 4.30726 46.6444 5.35316 45.0703C6.39905 43.4962 7.92802 41.7851 9.94007 39.937C11.9521 38.0889 14.1763 36.321 16.6126 34.6333C17.9423 33.6815 19.5369 32.6367 21.3961 31.499C23.2729 30.3035 25.2276 29.1632 27.26 28.078C28.8408 27.2341 30.3953 26.4767 31.9235 25.8059L32.1905 25.0829C32.0549 25.0102 31.9168 24.8421 31.7761 24.5786C31.5149 24.0894 31.5623 23.3627 31.9182 22.3988C31.9859 22.0725 32.1012 21.7449 32.2642 21.4161C32.4271 21.0872 32.5713 20.7684 32.6967 20.4597C32.8798 20.1684 33.0164 19.9262 33.1067 19.7329C33.1769 19.502 33.3035 19.2409 33.4866 18.9497C34.0336 18.706 34.5744 18.5865 35.109 18.5913C35.6612 18.5383 36.0879 18.7942 36.3894 19.3587C36.4697 19.5093 36.5326 19.7176 36.5779 19.9836C36.6056 20.3073 36.5519 20.7955 36.4166 21.4481C36.2613 22.0631 35.9982 22.9291 35.6272 24.0461C36.7238 23.6541 37.8995 23.365 39.1543 23.1787C40.3891 22.9548 41.5925 22.9894 42.7647 23.2825C43.9545 23.5179 44.9926 24.1487 45.879 25.1748C46.263 25.26 46.6522 25.5359 47.0464 26.0025C47.4582 26.4114 47.8048 26.8794 48.0861 27.4063C48.6889 28.5354 48.8275 29.7915 48.5019 31.1746C48.2138 32.5375 47.6296 33.8893 46.7493 35.2299C45.9066 36.5505 44.9559 37.7594 43.8973 38.8566C42.8386 39.9539 41.8401 40.8014 40.9017 41.3991C40.3195 41.7583 39.4878 42.42 38.4065 43.3842C37.3428 44.2907 36.3267 45.1959 35.3583 46.0999C35.9612 47.229 36.7285 48.4397 37.6602 49.7318C38.5919 51.024 39.5512 52.2772 40.538 53.4915C41.5626 54.6857 42.5155 55.7005 43.3968 56.5359C44.6095 57.6296 45.8635 58.4837 47.1589 59.098C48.4717 59.6546 49.6175 59.6717 50.5961 59.1492C51.123 58.8679 51.5696 58.436 51.9357 57.8535C52.3395 57.251 52.6617 56.4502 52.9022 55.4512C53.1102 54.6631 53.298 53.8373 53.4658 52.9738C53.6336 52.1104 53.765 51.3147 53.8601 50.5868C53.9551 49.8589 54.0251 49.2653 54.0701 48.806C54.1326 48.289 54.1801 47.925 54.2127 47.7142C54.2251 47.4657 54.2878 47.3113 54.4007 47.251C54.476 47.2108 54.5438 47.2472 54.6041 47.3601C54.6643 47.473 54.697 47.6249 54.7021 47.8156C54.6071 48.5435 54.4833 49.6253 54.3309 51.061C54.1959 52.4389 54.027 53.6173 53.8242 54.5962C53.5614 56.1876 53.1504 57.592 52.5912 58.8095C52.0898 60.0445 51.2745 60.9635 50.1454 61.5663Z" fill="#5069EB"/>
<path d="M50.1454 61.5663C49.2044 62.0687 48.0901 62.1558 46.8024 61.8276C45.5148 61.4993 44.1617 60.8675 42.7432 59.9319C41.3248 58.9964 39.9401 57.8977 38.5893 56.6359C37.2385 55.3741 36.0006 54.0519 34.8756 52.6695C33.7882 51.267 32.923 49.9636 32.28 48.7591L32.2498 48.7027C32.1493 48.5145 32.1355 48.3526 32.2082 48.217C32.2608 48.0438 32.2959 47.9284 32.3135 47.8707C32.4388 47.5619 32.8377 47.1313 33.5101 46.5788C35.4545 45.057 37.3399 43.47 39.1663 41.8177C41.0304 40.1454 42.5831 38.2523 43.8245 36.1385C45.0458 33.9871 45.7237 31.4971 45.8579 28.6684C45.8876 27.6369 45.7015 26.7448 45.2996 25.992C44.7972 25.051 43.9813 24.5193 42.8518 24.3968C41.7399 24.2166 40.4637 24.3176 39.0233 24.6997C37.6003 25.0241 36.1624 25.5016 34.7095 26.1322C34.6394 26.3631 34.5328 26.6618 34.3899 27.0283C34.2847 27.3747 34.207 27.6822 34.1569 27.9508C33.7008 29.4518 33.1971 31.3168 32.646 33.5458C32.0948 35.7747 31.5864 38.1743 31.1207 40.7446C30.6349 43.2772 30.2733 45.816 30.036 48.3611C29.7987 50.9061 29.7671 53.2929 29.9413 55.5216C30.1531 57.7301 30.6709 59.606 31.4948 61.1491C31.8565 61.8266 32.3111 62.4062 32.8584 62.8878C33.3857 63.3318 34.0834 63.3704 34.9516 63.0036C34.8413 63.1593 34.7108 63.2773 34.5603 63.3577C34.0333 63.639 33.4235 63.6744 32.7307 63.4639C32.0178 63.2157 31.3588 62.8421 30.7537 62.3429C30.1285 61.806 29.6753 61.2742 29.3939 60.7472C28.7308 59.5052 28.2771 57.8853 28.0327 55.8876C27.7884 53.8899 27.7009 51.6876 27.7701 49.2807C27.8192 46.8361 28.0101 44.34 28.3428 41.7924C28.693 39.1871 29.1411 36.6746 29.6872 34.2549C30.2333 31.8352 30.8234 29.6338 31.4575 27.6508C29.7086 28.6329 27.6887 29.8322 25.3979 31.2488C23.1246 32.6076 20.8464 34.1383 18.5632 35.8409C16.2599 37.506 14.1977 39.26 12.3764 41.103C10.5726 42.8882 9.26578 44.6984 8.45592 46.5334C8.25784 46.9777 8.14764 47.496 8.12531 48.0884C8.14062 48.6606 8.26885 49.1725 8.50999 49.6242C8.75113 50.0758 9.08381 50.3819 9.50804 50.5423C9.62351 50.5774 9.70133 50.6326 9.74152 50.7079C9.80181 50.8208 9.76672 50.9363 9.63626 51.0543C9.54344 51.1522 9.44935 51.2024 9.35398 51.205C8.83693 51.1425 8.22196 50.9871 7.50907 50.739C6.83381 50.4707 6.21501 50.1723 5.65267 49.8438C5.07024 49.4776 4.69864 49.144 4.53788 48.8429C4.0355 47.9019 4.30726 46.6444 5.35316 45.0703C6.39905 43.4962 7.92802 41.7851 9.94007 39.937C11.9521 38.0889 14.1763 36.321 16.6126 34.6333C17.9423 33.6815 19.5369 32.6367 21.3961 31.499C23.2729 30.3035 25.2276 29.1632 27.26 28.078C28.8408 27.2341 30.3953 26.4767 31.9235 25.8059L32.1905 25.0829C32.0549 25.0102 31.9168 24.8421 31.7761 24.5786C31.5149 24.0894 31.5623 23.3627 31.9182 22.3988C31.9859 22.0725 32.1012 21.7449 32.2642 21.4161C32.4271 21.0872 32.5713 20.7684 32.6967 20.4597C32.8798 20.1684 33.0164 19.9262 33.1067 19.7329C33.1769 19.502 33.3035 19.2409 33.4866 18.9497C34.0336 18.706 34.5744 18.5865 35.109 18.5913C35.6612 18.5383 36.0879 18.7942 36.3894 19.3587C36.4697 19.5093 36.5326 19.7176 36.5779 19.9836C36.6056 20.3073 36.5519 20.7955 36.4166 21.4481C36.2613 22.0631 35.9982 22.9291 35.6272 24.0461C36.7238 23.6541 37.8995 23.365 39.1543 23.1787C40.3891 22.9548 41.5925 22.9894 42.7647 23.2825C43.9545 23.5179 44.9926 24.1487 45.879 25.1748C46.263 25.26 46.6522 25.5359 47.0464 26.0025C47.4582 26.4114 47.8048 26.8794 48.0861 27.4063C48.6889 28.5354 48.8275 29.7915 48.5019 31.1746C48.2138 32.5375 47.6296 33.8893 46.7493 35.2299C45.9066 36.5505 44.9559 37.7594 43.8973 38.8566C42.8386 39.9539 41.8401 40.8014 40.9017 41.3991C40.3195 41.7583 39.4878 42.42 38.4065 43.3842C37.3428 44.2907 36.3267 45.1959 35.3583 46.0999C35.9612 47.229 36.7285 48.4397 37.6602 49.7318C38.5919 51.024 39.5512 52.2772 40.538 53.4915C41.5626 54.6857 42.5155 55.7005 43.3968 56.5359C44.6095 57.6296 45.8635 58.4837 47.1589 59.098C48.4717 59.6546 49.6175 59.6717 50.5961 59.1492C51.123 58.8679 51.5696 58.436 51.9357 57.8535C52.3395 57.251 52.6617 56.4502 52.9022 55.4512C53.1102 54.6631 53.298 53.8373 53.4658 52.9738C53.6336 52.1104 53.765 51.3147 53.8601 50.5868C53.9551 49.8589 54.0251 49.2653 54.0701 48.806C54.1326 48.289 54.1801 47.925 54.2127 47.7142C54.2251 47.4657 54.2878 47.3113 54.4007 47.251C54.476 47.2108 54.5438 47.2472 54.6041 47.3601C54.6643 47.473 54.697 47.6249 54.7021 47.8156C54.6071 48.5435 54.4833 49.6253 54.3309 51.061C54.1959 52.4389 54.027 53.6173 53.8242 54.5962C53.5614 56.1876 53.1504 57.592 52.5912 58.8095C52.0898 60.0445 51.2745 60.9635 50.1454 61.5663Z" fill="url(#paint0_linear_12_34)" fill-opacity="0.2"/>
<path d="M75.1171 47.3633C73.461 48.2475 71.712 48.8669 69.8699 49.2216C68.0655 49.5562 66.1932 49.4918 64.2529 49.0284C62.6466 48.9186 61.0765 48.3785 59.5425 47.4078C58.0262 46.3795 56.9414 45.0724 56.2881 43.4864C55.5318 41.617 55.1783 39.46 55.2274 37.0154C55.2765 34.5708 55.6556 31.9743 56.3647 29.2257C57.0536 26.4395 58.0011 23.6846 59.2071 20.9609C60.4307 18.1795 61.83 15.5461 63.4051 13.0607C64.96 10.5377 66.6093 8.32707 68.3527 6.42889C70.3747 4.23694 72.5148 2.53812 74.7731 1.33242C76.2033 0.568806 77.4706 0.134051 78.5749 0.0281532C79.7168 -0.0978398 80.5175 0.224317 80.9772 0.994625C82.2725 1.60896 83.2417 2.51833 83.8847 3.72276C84.6483 5.15301 84.9126 6.82568 84.6775 8.74076C84.4801 10.6358 84.0166 12.576 83.2871 14.5616C82.5577 16.5472 81.729 18.3923 80.8011 20.0968C79.8531 21.7637 79.0305 23.1219 78.3333 24.1713C78.2631 24.4023 78.1527 24.5579 78.0022 24.6383C77.7387 24.779 77.6483 24.6096 77.7309 24.1302C78.2502 23.5627 78.7894 22.6703 79.3485 21.4528C79.9252 20.1775 80.478 18.7216 81.0068 17.085C81.5357 15.4483 81.9692 13.8143 82.3073 12.1827C82.6629 10.4935 82.8505 8.94235 82.8699 7.52932C82.8693 6.07866 82.6379 4.92048 82.1757 4.0548C81.7537 3.2644 81.1022 2.81418 80.2212 2.70413C79.3201 2.55645 78.1356 2.87446 76.6678 3.65817C74.7106 4.70311 72.7298 6.29269 70.7254 8.42691C68.7009 10.5235 66.8196 12.9789 65.0816 15.7932C63.3435 18.6074 61.9356 21.6323 60.8578 24.868C59.7599 28.0659 59.1502 31.3177 59.0287 34.6231C58.9448 37.9085 59.5159 41.0618 60.742 44.0831C60.7848 44.2537 60.8463 44.4143 60.9267 44.5649C60.987 44.6778 61.0573 44.8095 61.1377 44.9601C61.9616 46.5032 63.0199 47.5343 64.3127 48.0533C65.6431 48.5521 67.0775 48.6569 68.6159 48.3676C70.1543 48.0783 71.6951 47.5217 73.2382 46.6978C73.8781 46.3562 74.4978 45.9769 75.0975 45.56C75.7348 45.1231 76.3432 44.6773 76.9228 44.2228C79.8005 41.9125 82.2728 39.4317 84.3398 36.7804C86.4067 34.1292 88.1122 31.5258 89.4563 28.9702C89.6745 28.5635 89.84 28.33 89.9529 28.2697C90.0282 28.2295 90.086 28.2471 90.1261 28.3224C90.1864 28.4353 90.1639 28.6649 90.0587 29.0113C89.6526 30.2438 89.0973 31.6044 88.3927 33.093C87.6881 34.5816 86.8944 35.9486 86.0115 37.1938C84.6495 39.0818 83.039 40.9573 81.1801 42.8204C79.3587 44.6634 77.3378 46.1777 75.1171 47.3633Z" fill="#5069EB"/>
<path d="M75.1171 47.3633C73.461 48.2475 71.712 48.8669 69.8699 49.2216C68.0655 49.5562 66.1932 49.4918 64.2529 49.0284C62.6466 48.9186 61.0765 48.3785 59.5425 47.4078C58.0262 46.3795 56.9414 45.0724 56.2881 43.4864C55.5318 41.617 55.1783 39.46 55.2274 37.0154C55.2765 34.5708 55.6556 31.9743 56.3647 29.2257C57.0536 26.4395 58.0011 23.6846 59.2071 20.9609C60.4307 18.1795 61.83 15.5461 63.4051 13.0607C64.96 10.5377 66.6093 8.32707 68.3527 6.42889C70.3747 4.23694 72.5148 2.53812 74.7731 1.33242C76.2033 0.568806 77.4706 0.134051 78.5749 0.0281532C79.7168 -0.0978398 80.5175 0.224317 80.9772 0.994625C82.2725 1.60896 83.2417 2.51833 83.8847 3.72276C84.6483 5.15301 84.9126 6.82568 84.6775 8.74076C84.4801 10.6358 84.0166 12.576 83.2871 14.5616C82.5577 16.5472 81.729 18.3923 80.8011 20.0968C79.8531 21.7637 79.0305 23.1219 78.3333 24.1713C78.2631 24.4023 78.1527 24.5579 78.0022 24.6383C77.7387 24.779 77.6483 24.6096 77.7309 24.1302C78.2502 23.5627 78.7894 22.6703 79.3485 21.4528C79.9252 20.1775 80.478 18.7216 81.0068 17.085C81.5357 15.4483 81.9692 13.8143 82.3073 12.1827C82.6629 10.4935 82.8505 8.94235 82.8699 7.52932C82.8693 6.07866 82.6379 4.92048 82.1757 4.0548C81.7537 3.2644 81.1022 2.81418 80.2212 2.70413C79.3201 2.55645 78.1356 2.87446 76.6678 3.65817C74.7106 4.70311 72.7298 6.29269 70.7254 8.42691C68.7009 10.5235 66.8196 12.9789 65.0816 15.7932C63.3435 18.6074 61.9356 21.6323 60.8578 24.868C59.7599 28.0659 59.1502 31.3177 59.0287 34.6231C58.9448 37.9085 59.5159 41.0618 60.742 44.0831C60.7848 44.2537 60.8463 44.4143 60.9267 44.5649C60.987 44.6778 61.0573 44.8095 61.1377 44.9601C61.9616 46.5032 63.0199 47.5343 64.3127 48.0533C65.6431 48.5521 67.0775 48.6569 68.6159 48.3676C70.1543 48.0783 71.6951 47.5217 73.2382 46.6978C73.8781 46.3562 74.4978 45.9769 75.0975 45.56C75.7348 45.1231 76.3432 44.6773 76.9228 44.2228C79.8005 41.9125 82.2728 39.4317 84.3398 36.7804C86.4067 34.1292 88.1122 31.5258 89.4563 28.9702C89.6745 28.5635 89.84 28.33 89.9529 28.2697C90.0282 28.2295 90.086 28.2471 90.1261 28.3224C90.1864 28.4353 90.1639 28.6649 90.0587 29.0113C89.6526 30.2438 89.0973 31.6044 88.3927 33.093C87.6881 34.5816 86.8944 35.9486 86.0115 37.1938C84.6495 39.0818 83.039 40.9573 81.1801 42.8204C79.3587 44.6634 77.3378 46.1777 75.1171 47.3633Z" fill="url(#paint1_linear_12_34)" fill-opacity="0.2"/>
</g>
<defs>
<filter id="filter0_di_12_34" x="0.293365" y="0.00158691" width="93.8657" height="71.5975" filterUnits="userSpaceOnUse" color-interpolation-filters="sRGB">
<feFlood flood-opacity="0" result="BackgroundImageFix"/>
<feColorMatrix in="SourceAlpha" type="matrix" values="0 0 0 0 0 0 0 0 0 0 0 0 0 0 0 0 0 0 127 0" result="hardAlpha"/>
<feOffset dy="4"/>
<feGaussianBlur stdDeviation="2"/>
<feComposite in2="hardAlpha" operator="out"/>
<feColorMatrix type="matrix" values="0 0 0 0 0 0 0 0 0 0 0 0 0 0 0 0 0 0 0.25 0"/>
<feBlend mode="normal" in2="BackgroundImageFix" result="effect1_dropShadow_12_34"/>
<feBlend mode="normal" in="SourceGraphic" in2="effect1_dropShadow_12_34" result="shape"/>
<feColorMatrix in="SourceAlpha" type="matrix" values="0 0 0 0 0 0 0 0 0 0 0 0 0 0 0 0 0 0 127 0" result="hardAlpha"/>
<feOffset dy="4"/>
<feGaussianBlur stdDeviation="2"/>
<feComposite in2="hardAlpha" operator="arithmetic" k2="-1" k3="1"/>
<feColorMatrix type="matrix" values="0 0 0 0 0 0 0 0 0 0 0 0 0 0 0 0 0 0 0.25 0"/>
<feBlend mode="normal" in2="shape" result="effect2_innerShadow_12_34"/>
</filter>
<linearGradient id="paint0_linear_12_34" x1="33.5787" y1="3.6649" x2="67.018" y2="66.2972" gradientUnits="userSpaceOnUse">
<stop offset="0.9999" stop-color="#001AFF"/>
<stop offset="1" stop-color="#001AFF" stop-opacity="0"/>
</linearGradient>
<linearGradient id="paint1_linear_12_34" x1="33.5787" y1="3.6649" x2="67.018" y2="66.2972" gradientUnits="userSpaceOnUse">
<stop offset="0.9999" stop-color="#001AFF"/>
<stop offset="1" stop-color="#001AFF" stop-opacity="0"/>
</linearGradient>
</defs>
</svg>
