<svg width="27" height="26" viewBox="0 0 27 26" fill="none" xmlns="http://www.w3.org/2000/svg">
<path d="M14.4179 25.169C14.122 25.3744 13.7716 25.41 13.3667 25.2758C12.9618 25.1416 12.5364 24.8833 12.0904 24.5008C11.6443 24.1183 11.2089 23.6692 10.7842 23.1533C10.3594 22.6375 9.97016 22.0969 9.61641 21.5318C9.27449 20.9584 9.00243 20.4255 8.80023 19.9331L8.79075 19.9101C8.75916 19.8331 8.7548 19.7669 8.77766 19.7115C8.79421 19.6407 8.80525 19.5935 8.81076 19.5699C8.85018 19.4437 8.9756 19.2676 9.18703 19.0418C9.79844 18.4196 10.3913 17.7708 10.9656 17.0953C11.5517 16.4117 12.04 15.6377 12.4304 14.7736C12.8144 13.894 13.0275 12.876 13.0698 11.7196C13.0791 11.2979 13.0206 10.9332 12.8942 10.6254C12.7362 10.2407 12.4796 10.0234 12.1245 9.9733C11.7749 9.89962 11.3736 9.94089 10.9206 10.0971C10.4732 10.2297 10.0211 10.4249 9.56419 10.6827C9.54213 10.7772 9.50863 10.8993 9.4637 11.0491C9.4306 11.1907 9.40618 11.3164 9.39043 11.4262C9.247 12.0399 9.08863 12.8023 8.91532 13.7136C8.74201 14.6248 8.58213 15.6058 8.4357 16.6566C8.28295 17.692 8.16926 18.7299 8.09464 19.7704C8.02002 20.8109 8.01009 21.7867 8.06485 22.6978C8.13145 23.6007 8.29428 24.3675 8.55335 24.9984C8.66709 25.2754 8.81001 25.5123 8.98212 25.7092C9.14792 25.8908 9.36732 25.9065 9.64033 25.7566C9.60563 25.8202 9.5646 25.8685 9.51726 25.9013C9.35157 26.0163 9.1598 26.0308 8.94196 25.9447C8.71779 25.8433 8.51057 25.6905 8.32031 25.4865C8.12373 25.267 7.9812 25.0495 7.89274 24.8341C7.68422 24.3263 7.54155 23.6641 7.46472 22.8474C7.38789 22.0307 7.36036 21.1303 7.38212 20.1463C7.39757 19.1469 7.4576 18.1265 7.56221 17.085C7.67233 16.0199 7.81325 14.9927 7.98496 14.0035C8.15667 13.0143 8.34222 12.1143 8.54161 11.3036C7.99168 11.7051 7.35654 12.1954 6.6362 12.7745C5.92138 13.33 5.20501 13.9558 4.48707 14.6519C3.76283 15.3326 3.11435 16.0497 2.54165 16.8031C1.97447 17.533 1.56355 18.273 1.30889 19.0232C1.24661 19.2048 1.21195 19.4167 1.20493 19.6589C1.20975 19.8928 1.25007 20.1021 1.32589 20.2868C1.40172 20.4714 1.50633 20.5966 1.63973 20.6621C1.67603 20.6765 1.70051 20.699 1.71314 20.7298C1.7321 20.776 1.72107 20.8232 1.68005 20.8714C1.65086 20.9115 1.62127 20.932 1.59128 20.9331C1.4287 20.9075 1.23532 20.844 1.01116 20.7425C0.798829 20.6329 0.604251 20.5109 0.427426 20.3766C0.244283 20.2269 0.127436 20.0905 0.0768856 19.9674C-0.0810836 19.5827 0.00436985 19.0686 0.333246 18.4251C0.662122 17.7815 1.1429 17.082 1.77558 16.3264C2.40825 15.5709 3.10763 14.8482 3.8737 14.1582C4.29185 13.7691 4.79323 13.342 5.37787 12.8768C5.96802 12.3881 6.58264 11.9219 7.22174 11.4783C7.71882 11.1332 8.20762 10.8236 8.68814 10.5493L8.77209 10.2538C8.72947 10.2241 8.68604 10.1553 8.64181 10.0476C8.55966 9.84759 8.57456 9.55054 8.68649 9.15647C8.70775 9.02307 8.74401 8.88915 8.79526 8.7547C8.84651 8.62026 8.89185 8.48992 8.93126 8.3637C8.98884 8.24464 9.03181 8.1456 9.0602 8.06658C9.08226 7.97217 9.12208 7.86543 9.17965 7.74638C9.35166 7.64675 9.52172 7.59792 9.68982 7.59987C9.86343 7.57822 9.99763 7.68281 10.0924 7.91362C10.1177 7.97517 10.1374 8.06032 10.1517 8.16907C10.1604 8.30143 10.1435 8.50101 10.101 8.76781C10.0521 9.01922 9.9694 9.37326 9.85275 9.82992C10.1976 9.66966 10.5673 9.55145 10.9618 9.4753C11.3501 9.38376 11.7285 9.3979 12.0971 9.51774C12.4712 9.61398 12.7976 9.87185 13.0764 10.2913C13.1971 10.3262 13.3195 10.439 13.4435 10.6297C13.5729 10.7969 13.6819 10.9882 13.7704 11.2036C13.9599 11.6652 14.0035 12.1788 13.9011 12.7442C13.8106 13.3014 13.6269 13.854 13.35 14.4021C13.085 14.942 12.7861 15.4362 12.4532 15.8848C12.1203 16.3333 11.8064 16.6798 11.5113 16.9242C11.3282 17.071 11.0667 17.3415 10.7267 17.7357C10.3922 18.1063 10.0727 18.4764 9.7682 18.846C9.95777 19.3076 10.199 19.8025 10.492 20.3308C10.785 20.859 11.0866 21.3714 11.3969 21.8678C11.7191 22.356 12.0187 22.7709 12.2959 23.1124C12.6772 23.5596 13.0715 23.9087 13.4788 24.1599C13.8916 24.3874 14.2519 24.3944 14.5596 24.1808C14.7253 24.0658 14.8657 23.8892 14.9809 23.6511C15.1079 23.4048 15.2092 23.0774 15.2848 22.669C15.3502 22.3468 15.4093 22.0092 15.462 21.6562C15.5148 21.3032 15.5561 20.9779 15.586 20.6803C15.6159 20.3827 15.6379 20.1401 15.652 19.9523C15.6717 19.7409 15.6866 19.5921 15.6969 19.5059C15.7008 19.4043 15.7205 19.3412 15.756 19.3166C15.7797 19.3002 15.801 19.315 15.8199 19.3612C15.8389 19.4073 15.8492 19.4694 15.8508 19.5474C15.8209 19.845 15.782 20.2872 15.734 20.8742C15.6916 21.4375 15.6385 21.9193 15.5747 22.3195C15.492 22.97 15.3628 23.5442 15.187 24.0419C15.0293 24.5468 14.773 24.9225 14.4179 25.169Z" fill="#5069EB"/>
<path d="M22.2701 19.3625C21.7494 19.724 21.1994 19.9772 20.6202 20.1222C20.0528 20.259 19.4641 20.2327 18.8539 20.0432C18.3488 19.9983 17.8551 19.7775 17.3728 19.3807C16.896 18.9603 16.5549 18.4259 16.3495 17.7775C16.1117 17.0133 16.0005 16.1314 16.0159 15.132C16.0314 14.1326 16.1506 13.0711 16.3735 11.9474C16.5902 10.8084 16.8881 9.68212 17.2673 8.56862C17.6521 7.43153 18.0921 6.35494 18.5874 5.33885C19.0763 4.30738 19.5949 3.40364 20.1431 2.62762C20.7789 1.7315 21.4519 1.03699 22.162 0.544071C22.6117 0.231891 23.0102 0.0541543 23.3574 0.0108609C23.7165 -0.0406478 23.9683 0.091057 24.1128 0.405975C24.5201 0.657127 24.8249 1.0289 25.0271 1.52129C25.2672 2.10601 25.3503 2.78983 25.2764 3.57276C25.2143 4.34747 25.0685 5.1407 24.8392 5.95245C24.6098 6.7642 24.3492 7.5185 24.0574 8.21536C23.7594 8.89684 23.5007 9.45209 23.2814 9.88111C23.2594 9.97552 23.2247 10.0392 23.1773 10.072C23.0945 10.1295 23.066 10.0603 23.092 9.86428C23.2553 9.6323 23.4249 9.26744 23.6007 8.7697C23.782 8.24835 23.9558 7.65314 24.1221 6.98405C24.2884 6.31496 24.4247 5.64692 24.531 4.97992C24.6429 4.28932 24.7019 3.65518 24.708 3.0775C24.7078 2.48444 24.635 2.01095 24.4897 1.65704C24.357 1.33391 24.1521 1.14985 23.8751 1.10486C23.5918 1.04448 23.2193 1.17449 22.7577 1.49489C22.1423 1.92208 21.5195 2.57194 20.8892 3.44445C20.2526 4.30158 19.661 5.3054 19.1145 6.45593C18.568 7.60646 18.1253 8.84312 17.7864 10.1659C17.4412 11.4733 17.2494 12.8027 17.2112 14.154C17.1848 15.4972 17.3644 16.7863 17.75 18.0215C17.7634 18.0912 17.7828 18.1569 17.808 18.2184C17.827 18.2646 17.8491 18.3184 17.8744 18.38C18.1335 19.0109 18.4662 19.4324 18.8728 19.6446C19.2911 19.8485 19.7421 19.8913 20.2259 19.7731C20.7096 19.6548 21.1941 19.4272 21.6793 19.0904C21.8805 18.9508 22.0754 18.7957 22.264 18.6253C22.4644 18.4466 22.6557 18.2644 22.8379 18.0786C23.7428 17.1341 24.5202 16.1199 25.1701 15.036C25.8201 13.9521 26.3564 12.8878 26.779 11.843C26.8476 11.6767 26.8997 11.5813 26.9352 11.5566C26.9589 11.5402 26.977 11.5474 26.9896 11.5781C27.0086 11.6243 27.0015 11.7182 26.9684 11.8598C26.8408 12.3637 26.6661 12.9199 26.4446 13.5285C26.223 14.1371 25.9734 14.6959 25.6958 15.205C25.2675 15.9768 24.7611 16.7436 24.1766 17.5053C23.6039 18.2587 22.9684 18.8778 22.2701 19.3625Z" fill="#5069EB"/>
</svg>
