<svg width="39" height="40" viewBox="0 0 39 40" fill="none" xmlns="http://www.w3.org/2000/svg">
<path d="M20.4179 30.169C20.122 30.3744 19.7716 30.41 19.3667 30.2758C18.9618 30.1416 18.5364 29.8833 18.0904 29.5008C17.6443 29.1183 17.2089 28.6692 16.7842 28.1533C16.3594 27.6374 15.9702 27.0969 15.6164 26.5318C15.2745 25.9584 15.0024 25.4255 14.8002 24.9331L14.7908 24.91C14.7592 24.8331 14.7548 24.7669 14.7777 24.7115C14.7942 24.6407 14.8052 24.5935 14.8108 24.5699C14.8502 24.4437 14.9756 24.2676 15.187 24.0418C15.7984 23.4196 16.3913 22.7708 16.9656 22.0953C17.5517 21.4117 18.04 20.6377 18.4304 19.7736C18.8144 18.894 19.0275 17.876 19.0698 16.7196C19.0791 16.2979 19.0206 15.9332 18.8942 15.6254C18.7362 15.2408 18.4796 15.0234 18.1245 14.9733C17.7749 14.8996 17.3736 14.9409 16.9206 15.0971C16.4732 15.2297 16.0211 15.4249 15.5642 15.6827C15.5421 15.7772 15.5086 15.8993 15.4637 16.0491C15.4306 16.1907 15.4062 16.3164 15.3904 16.4262C15.247 17.0399 15.0886 17.8023 14.9153 18.7136C14.742 19.6248 14.5821 20.6058 14.4357 21.6566C14.2829 22.692 14.1693 23.7299 14.0946 24.7704C14.02 25.8109 14.0101 26.7867 14.0648 27.6978C14.1314 28.6007 14.2943 29.3675 14.5534 29.9984C14.6671 30.2754 14.81 30.5123 14.9821 30.7092C15.1479 30.8908 15.3673 30.9065 15.6403 30.7566C15.6056 30.8202 15.5646 30.8685 15.5173 30.9013C15.3516 31.0163 15.1598 31.0308 14.942 30.9447C14.7178 30.8433 14.5106 30.6905 14.3203 30.4865C14.1237 30.267 13.9812 30.0495 13.8927 29.8341C13.6842 29.3263 13.5415 28.6641 13.4647 27.8474C13.3879 27.0307 13.3604 26.1303 13.3821 25.1463C13.3976 24.1469 13.4576 23.1265 13.5622 22.085C13.6723 21.0199 13.8132 19.9927 13.985 19.0035C14.1567 18.0143 14.3422 17.1143 14.5416 16.3036C13.9917 16.7051 13.3565 17.1954 12.6362 17.7745C11.9214 18.33 11.205 18.9558 10.4871 19.6519C9.76283 20.3326 9.11435 21.0497 8.54165 21.8031C7.97447 22.533 7.56355 23.273 7.30889 24.0232C7.24661 24.2048 7.21195 24.4167 7.20493 24.6589C7.20975 24.8928 7.25007 25.1021 7.32589 25.2868C7.40172 25.4714 7.50633 25.5966 7.63973 25.6621C7.67603 25.6765 7.70051 25.699 7.71314 25.7298C7.7321 25.776 7.72107 25.8232 7.68005 25.8714C7.65086 25.9115 7.62127 25.932 7.59128 25.9331C7.4287 25.9075 7.23532 25.844 7.01116 25.7425C6.79883 25.6329 6.60425 25.5109 6.42743 25.3766C6.24428 25.2269 6.12744 25.0905 6.07689 24.9674C5.91892 24.5827 6.00437 24.0686 6.33325 23.4251C6.66212 22.7815 7.1429 22.082 7.77558 21.3264C8.40825 20.5709 9.10763 19.8482 9.8737 19.1582C10.2918 18.7691 10.7932 18.342 11.3779 17.8768C11.968 17.3881 12.5826 16.9219 13.2217 16.4783C13.7188 16.1332 14.2076 15.8236 14.6881 15.5493L14.7721 15.2538C14.7295 15.2241 14.686 15.1553 14.6418 15.0476C14.5597 14.8476 14.5746 14.5505 14.6865 14.1565C14.7078 14.0231 14.744 13.8891 14.7953 13.7547C14.8465 13.6203 14.8918 13.4899 14.9313 13.3637C14.9888 13.2446 15.0318 13.1456 15.0602 13.0666C15.0823 12.9722 15.1221 12.8654 15.1797 12.7464C15.3517 12.6468 15.5217 12.5979 15.6898 12.5999C15.8634 12.5782 15.9976 12.6828 16.0924 12.9136C16.1177 12.9752 16.1374 13.0603 16.1517 13.1691C16.1604 13.3014 16.1435 13.501 16.101 13.7678C16.0521 14.0192 15.9694 14.3733 15.8527 14.8299C16.1976 14.6697 16.5673 14.5515 16.9618 14.4753C17.3501 14.3838 17.7285 14.3979 18.0971 14.5177C18.4712 14.614 18.7976 14.8718 19.0764 15.2913C19.1971 15.3262 19.3195 15.439 19.4435 15.6297C19.5729 15.7969 19.6819 15.9882 19.7704 16.2036C19.9599 16.6652 20.0035 17.1788 19.9011 17.7442C19.8106 18.3014 19.6269 18.854 19.35 19.4021C19.085 19.942 18.7861 20.4362 18.4532 20.8848C18.1203 21.3333 17.8064 21.6798 17.5113 21.9242C17.3282 22.071 17.0667 22.3415 16.7267 22.7357C16.3922 23.1063 16.0727 23.4764 15.7682 23.846C15.9578 24.3076 16.199 24.8025 16.492 25.3308C16.785 25.859 17.0866 26.3714 17.3969 26.8678C17.7191 27.356 18.0187 27.7709 18.2959 28.1124C18.6772 28.5596 19.0715 28.9087 19.4788 29.1599C19.8916 29.3874 20.2519 29.3944 20.5596 29.1808C20.7253 29.0658 20.8657 28.8892 20.9809 28.6511C21.1079 28.4048 21.2092 28.0774 21.2848 27.669C21.3502 27.3468 21.4093 27.0092 21.462 26.6562C21.5148 26.3032 21.5561 25.9779 21.586 25.6803C21.6159 25.3827 21.6379 25.1401 21.652 24.9523C21.6717 24.7409 21.6866 24.5921 21.6969 24.5059C21.7008 24.4044 21.7205 24.3412 21.756 24.3166C21.7797 24.3002 21.801 24.315 21.8199 24.3612C21.8389 24.4073 21.8492 24.4694 21.8508 24.5474C21.8209 24.845 21.782 25.2872 21.734 25.8742C21.6916 26.4375 21.6385 26.9193 21.5747 27.3195C21.492 27.97 21.3628 28.5442 21.187 29.0419C21.0293 29.5468 20.773 29.9225 20.4179 30.169Z" fill="#5069EB"/>
<path d="M28.2701 24.3625C27.7494 24.724 27.1994 24.9772 26.6202 25.1222C26.0528 25.259 25.4641 25.2327 24.8539 25.0432C24.3489 24.9983 23.8551 24.7775 23.3728 24.3807C22.896 23.9603 22.5549 23.4259 22.3495 22.7775C22.1117 22.0133 22.0005 21.1314 22.0159 20.132C22.0314 19.1326 22.1506 18.0711 22.3735 16.9474C22.5902 15.8084 22.8881 14.6821 23.2673 13.5686C23.6521 12.4315 24.0921 11.3549 24.5874 10.3389C25.0763 9.30738 25.5949 8.40364 26.1431 7.62762C26.7789 6.7315 27.4519 6.03699 28.162 5.54407C28.6117 5.23189 29.0102 5.05415 29.3574 5.01086C29.7165 4.95935 29.9683 5.09106 30.1128 5.40598C30.5201 5.65713 30.8249 6.0289 31.0271 6.52129C31.2672 7.10601 31.3503 7.78983 31.2764 8.57276C31.2143 9.34747 31.0685 10.1407 30.8392 10.9524C30.6098 11.7642 30.3492 12.5185 30.0574 13.2154C29.7594 13.8968 29.5007 14.4521 29.2814 14.8811C29.2594 14.9755 29.2247 15.0392 29.1773 15.072C29.0945 15.1295 29.066 15.0603 29.092 14.8643C29.2553 14.6323 29.4249 14.2674 29.6007 13.7697C29.782 13.2484 29.9558 12.6531 30.1221 11.9841C30.2884 11.315 30.4247 10.6469 30.531 9.97992C30.6429 9.28932 30.7019 8.65518 30.708 8.0775C30.7078 7.48444 30.635 7.01095 30.4897 6.65704C30.357 6.33391 30.1521 6.14985 29.8751 6.10486C29.5918 6.04448 29.2193 6.17449 28.7577 6.49489C28.1423 6.92208 27.5195 7.57194 26.8892 8.44445C26.2526 9.30158 25.661 10.3054 25.1145 11.4559C24.568 12.6065 24.1253 13.8431 23.7864 15.1659C23.4412 16.4733 23.2494 17.8027 23.2112 19.154C23.1848 20.4972 23.3644 21.7863 23.75 23.0215C23.7634 23.0912 23.7828 23.1569 23.808 23.2184C23.827 23.2646 23.8491 23.3184 23.8744 23.38C24.1335 24.0109 24.4662 24.4324 24.8728 24.6446C25.2911 24.8485 25.7421 24.8913 26.2259 24.7731C26.7096 24.6548 27.1941 24.4272 27.6793 24.0904C27.8805 23.9508 28.0754 23.7957 28.264 23.6253C28.4644 23.4466 28.6557 23.2644 28.8379 23.0786C29.7428 22.1341 30.5202 21.1199 31.1701 20.036C31.8201 18.9521 32.3564 17.8878 32.779 16.843C32.8476 16.6767 32.8997 16.5813 32.9352 16.5566C32.9589 16.5402 32.977 16.5474 32.9896 16.5781C33.0086 16.6243 33.0015 16.7182 32.9684 16.8598C32.8408 17.3637 32.6661 17.9199 32.4446 18.5285C32.223 19.1371 31.9734 19.6959 31.6958 20.205C31.2675 20.9768 30.7611 21.7436 30.1766 22.5053C29.6039 23.2587 28.9684 23.8778 28.2701 24.3625Z" fill="#5069EB"/>
</svg>
