<svg width="32" height="32" viewBox="0 0 32 32" fill="none" xmlns="http://www.w3.org/2000/svg">
<g clip-path="url(#clip0_26_3)">
<path d="M16.8159 26.7668C16.5529 26.9608 16.2415 26.9944 15.8815 26.8677C15.5216 26.741 15.1434 26.497 14.747 26.1359C14.3505 25.7747 13.9635 25.3506 13.5859 24.8635C13.2084 24.3763 12.8624 23.8659 12.5479 23.3323C12.244 22.7908 12.0022 22.2876 11.8224 21.8227L11.814 21.8009C11.7859 21.7282 11.782 21.6657 11.8024 21.6134C11.8171 21.5465 11.8269 21.502 11.8318 21.4797C11.8668 21.3605 11.9783 21.1942 12.1662 20.981C12.7097 20.3935 13.2367 19.7808 13.7472 19.143C14.2682 18.4974 14.7022 17.7666 15.0492 16.9505C15.3906 16.12 15.58 15.1587 15.6176 14.0667C15.6258 13.6685 15.5738 13.3241 15.4615 13.0335C15.3211 12.6702 15.093 12.465 14.7773 12.4177C14.4665 12.3481 14.1098 12.3871 13.7072 12.5346C13.3095 12.6598 12.9076 12.8442 12.5015 13.0876C12.4819 13.1768 12.4521 13.2921 12.4122 13.4336C12.3828 13.5673 12.361 13.686 12.347 13.7897C12.2196 14.3692 12.0788 15.0891 11.9247 15.9496C11.7707 16.8101 11.6286 17.7364 11.4984 18.7287C11.3626 19.7064 11.2616 20.6865 11.1952 21.669C11.1289 22.6515 11.1201 23.5729 11.1688 24.4333C11.228 25.2859 11.3727 26.01 11.603 26.6058C11.7041 26.8673 11.8311 27.0911 11.9841 27.277C12.1315 27.4484 12.3265 27.4633 12.5692 27.3217C12.5383 27.3818 13.0131 28.9634 12.971 28.9945C12.8238 29.1031 12.142 27.5807 11.9484 27.4994C11.7491 27.4036 11.565 27.2593 11.3958 27.0666C11.2211 26.8594 11.0944 26.654 11.0158 26.4506C10.8304 25.9711 10.7036 25.3458 10.6353 24.5746C10.567 23.8034 10.5425 22.9532 10.5619 22.024C10.5756 21.0803 10.629 20.1167 10.722 19.1332C10.8199 18.1274 10.9451 17.1575 11.0977 16.2233C11.2504 15.2892 11.4153 14.4394 11.5925 13.6739C11.1037 14.053 10.5391 14.516 9.89885 15.0629C9.26345 15.5874 8.62667 16.1783 7.98851 16.8356C7.34473 17.4784 6.76831 18.1555 6.25925 18.867C5.75508 19.5562 5.38982 20.255 5.16346 20.9634C5.1081 21.135 5.07729 21.3351 5.07105 21.5637C5.07533 21.7846 5.11117 21.9823 5.17857 22.1566C5.24597 22.331 5.33896 22.4491 5.45753 22.5111C5.48981 22.5246 5.51156 22.5459 5.52279 22.575C5.53964 22.6186 5.52984 22.6631 5.49337 22.7087C5.46743 22.7465 5.44113 22.7659 5.41447 22.7669C5.26995 22.7428 5.09807 22.6828 4.89881 22.587C4.71007 22.4834 4.53711 22.3682 4.37993 22.2414C4.21714 22.1 4.11328 21.9712 4.06834 21.855C3.92793 21.4917 4.00388 21.0063 4.29622 20.3986C4.58855 19.7909 5.01591 19.1304 5.57829 18.4169C6.14067 17.7035 6.76234 17.021 7.44329 16.3695C7.81497 16.002 8.26065 15.5987 8.78033 15.1595C9.30491 14.6979 9.85124 14.2577 10.4193 13.8388C10.8612 13.513 11.2957 13.2206 11.7228 12.9616L11.7974 12.6826C11.7595 12.6545 11.7209 12.5896 11.6816 12.4879C11.6086 12.299 11.6218 12.0185 11.7213 11.6464C11.7402 11.5204 11.7725 11.3939 11.818 11.267C11.8636 11.14 11.9039 11.017 11.9389 10.8978C11.9901 10.7853 12.0283 10.6918 12.0535 10.6172C12.0731 10.528 12.1085 10.4273 12.1597 10.3148C12.3126 10.2208 12.4637 10.1746 12.6132 10.1765C12.7675 10.156 12.8868 10.2548 12.971 10.4728C12.9935 10.5309 13.0111 10.6113 13.0237 10.714C13.0315 10.839 13.0165 11.0274 12.9787 11.2794C12.9352 11.5168 12.8617 11.8511 12.758 12.2823C13.0645 12.131 13.3931 12.0193 13.7439 11.9474C14.089 11.861 14.4254 11.8744 14.753 11.9875C15.0855 12.0784 15.3757 12.3219 15.6234 12.718C15.7308 12.7509 15.8395 12.8574 15.9497 13.0376C16.0648 13.1954 16.1617 13.3761 16.2403 13.5795C16.4088 14.0154 16.4476 14.5003 16.3566 15.0342C16.276 15.5604 16.1128 16.0822 15.8667 16.5998C15.6312 17.1096 15.3654 17.5762 15.0695 17.9998C14.7736 18.4234 14.4945 18.7506 14.2322 18.9814C14.0695 19.12 13.8371 19.3755 13.5348 19.7477C13.2375 20.0976 12.9535 20.4471 12.6828 20.7961C12.8513 21.232 13.0658 21.6993 13.3262 22.1982C13.5866 22.697 13.8548 23.1808 14.1306 23.6496C14.417 24.1106 14.6833 24.5024 14.9297 24.8249C15.2686 25.2471 15.6191 25.5768 15.9812 25.8139C16.3481 26.0288 16.6684 26.0354 16.9419 25.8337C17.0892 25.7251 17.214 25.5584 17.3163 25.3335C17.4292 25.1009 17.5193 24.7918 17.5865 24.4061C17.6446 24.1019 17.6971 23.7831 17.744 23.4497C17.7909 23.1164 17.8276 22.8092 17.8542 22.5282C17.8808 22.2472 17.9003 22.0181 17.9129 21.8408C17.9304 21.6412 17.9437 21.5007 17.9528 21.4193C17.9562 21.3233 17.9738 21.2637 18.0053 21.2405C18.0264 21.225 18.0453 21.239 18.0622 21.2826C18.079 21.3262 18.0881 21.3848 18.0896 21.4584C18.063 21.7394 18.0284 22.157 17.9858 22.7113C17.9481 23.2432 17.9009 23.6982 17.8442 24.0761C17.7707 24.6904 17.6558 25.2326 17.4996 25.7026C17.3594 26.1794 17.1315 26.5341 16.8159 26.7668Z" fill="#5069EB"/>
<path d="M23.7957 21.2838C23.3328 21.6252 22.8439 21.8643 22.3291 22.0012C21.8247 22.1304 21.3014 22.1055 20.7591 21.9266C20.3101 21.8842 19.8712 21.6757 19.4425 21.301C19.0187 20.904 18.7154 20.3994 18.5329 19.7872C18.3215 19.0655 18.2226 18.2328 18.2364 17.289C18.2501 16.3453 18.3561 15.3429 18.5543 14.2819C18.7468 13.2063 19.0117 12.1427 19.3487 11.0913C19.6907 10.0175 20.0818 9.00091 20.5221 8.04143C20.9567 7.06742 21.4177 6.21402 21.905 5.48124C22.4701 4.63504 23.0683 3.97922 23.6995 3.51376C24.0993 3.21897 24.4535 3.05114 24.7621 3.01026C25.0813 2.96162 25.3051 3.08598 25.4336 3.38336C25.7957 3.62052 26.0665 3.97158 26.2463 4.43654C26.4597 4.98869 26.5336 5.63441 26.4679 6.37373C26.4127 7.10528 26.2831 7.85432 26.0793 8.62084C25.8754 9.38737 25.6437 10.0996 25.3844 10.7577C25.1194 11.4012 24.8895 11.9255 24.6946 12.3306C24.675 12.4198 24.6442 12.4799 24.6021 12.5109C24.5284 12.5652 24.5032 12.4998 24.5262 12.3148C24.6714 12.0957 24.8221 11.7512 24.9784 11.2811C25.1396 10.7888 25.2941 10.2268 25.4419 9.59497C25.5897 8.96316 25.7109 8.33233 25.8054 7.70249C25.9048 7.05036 25.9572 6.45155 25.9626 5.90605C25.9625 5.34603 25.8978 4.89892 25.7686 4.56473C25.6506 4.2596 25.4685 4.08579 25.2223 4.04331C24.9704 3.9863 24.6394 4.10906 24.2291 4.41161C23.682 4.81501 23.1284 5.42866 22.5682 6.25256C22.0023 7.06194 21.4765 8.00984 20.9907 9.09628C20.5049 10.1827 20.1114 11.3505 19.8101 12.5996C19.5032 13.8341 19.3328 15.0895 19.2989 16.3655C19.2754 17.6338 19.435 18.8511 19.7778 20.0175C19.7897 20.0834 19.8069 20.1454 19.8294 20.2035C19.8462 20.2471 19.8659 20.2979 19.8883 20.3561C20.1186 20.9518 20.4144 21.3498 20.7758 21.5502C21.1476 21.7428 21.5486 21.7832 21.9786 21.6715C22.4085 21.5598 22.8392 21.345 23.2705 21.0269C23.4494 20.895 23.6226 20.7486 23.7902 20.5877C23.9683 20.419 24.1384 20.2469 24.3004 20.0714C25.1047 19.1795 25.7957 18.2218 26.3735 17.1983C26.9512 16.1748 27.4279 15.1698 27.8036 14.1832C27.8646 14.0262 27.9108 13.9361 27.9424 13.9128C27.9634 13.8973 27.9796 13.9041 27.9908 13.9331C28.0076 13.9767 28.0014 14.0654 27.9719 14.1991C27.8584 14.6749 27.7032 15.2001 27.5063 15.7748C27.3094 16.3495 27.0875 16.8772 26.8407 17.3579C26.46 18.0868 26.0099 18.8108 25.4903 19.5301C24.9812 20.2415 24.4164 20.8261 23.7957 21.2838Z" fill="#5069EB"/>
</g>
<defs>
<clipPath id="clip0_26_3">
<rect width="32" height="32" fill="white"/>
</clipPath>
</defs>
</svg>
