<svg width="24" height="21" viewBox="0 0 24 21" fill="none" xmlns="http://www.w3.org/2000/svg">
<path d="M1.8 21C1.32 21 0.9 20.8031 0.54 20.4094C0.18 20.0156 0 19.5563 0 19.0312V1.96875C0 1.44375 0.18 0.984375 0.54 0.590625C0.9 0.196875 1.32 0 1.8 0H22.2C22.68 0 23.1 0.196875 23.46 0.590625C23.82 0.984375 24 1.44375 24 1.96875V19.0312C24 19.5563 23.82 20.0156 23.46 20.4094C23.1 20.8031 22.68 21 22.2 21H1.8ZM12 11.0906L1.8 3.77344V19.0312H22.2V3.77344L12 11.0906ZM12 9.12187L22.08 1.96875H1.95L12 9.12187ZM1.8 3.77344V1.96875V19.0312V3.77344Z" fill="#0045F6"/>
</svg>
