<svg width="218" height="54" viewBox="0 0 218 54" fill="none" xmlns="http://www.w3.org/2000/svg">
<path d="M14.752 35.04H10.656V52H0.160004V7.64801H14.688C20.7467 7.64801 25.2907 8.75734 28.32 10.976C31.392 13.1947 32.928 16.5867 32.928 21.152C32.928 24.0107 32.2453 26.4 30.88 28.32C29.5147 30.1973 27.36 31.7973 24.416 33.12L35.68 52H23.84L14.752 35.04ZM10.656 27.808H15.072C17.4187 27.808 19.168 27.2747 20.32 26.208C21.5147 25.1413 22.112 23.456 22.112 21.152C22.112 19.0187 21.472 17.4613 20.192 16.48C18.9547 15.4987 17.0347 15.008 14.432 15.008H10.656V27.808Z" fill="#353535"/>
<path d="M49.58 18.016V52H39.468V18.016H49.58ZM44.46 0.0960083C46.2093 0.0960083 47.6387 0.650675 48.748 1.76001C49.9 2.82668 50.476 4.19201 50.476 5.85601C50.476 7.52001 49.9 8.90668 48.748 10.016C47.6387 11.0827 46.2093 11.616 44.46 11.616C42.7107 11.616 41.2813 11.0827 40.172 10.016C39.0627 8.90668 38.508 7.52001 38.508 5.85601C38.508 4.19201 39.0627 2.82668 40.172 1.76001C41.2813 0.650675 42.7107 0.0960083 44.46 0.0960083Z" fill="#353535"/>
<path d="M77.4345 16.928C80.3785 16.928 82.6825 17.824 84.3465 19.616C86.0105 21.408 86.8425 23.9253 86.8425 27.168V52H76.7305V28.896C76.7305 27.1893 76.4532 26.016 75.8985 25.376C75.3865 24.6933 74.5972 24.352 73.5305 24.352C71.4825 24.352 69.5198 25.824 67.6425 28.768V52H57.5305V18.016H66.3625L67.0665 22.048C68.5172 20.3413 70.0745 19.0613 71.7385 18.208C73.4452 17.3547 75.3438 16.928 77.4345 16.928Z" fill="#353535"/>
<path d="M121.476 42.144C121.476 43.424 121.647 44.3627 121.988 44.96C122.372 45.5573 122.969 46.0053 123.78 46.304L121.668 52.896C119.577 52.7253 117.871 52.2773 116.548 51.552C115.225 50.784 114.201 49.5893 113.476 47.968C111.257 51.3813 107.844 53.088 103.236 53.088C99.8653 53.088 97.1773 52.1067 95.172 50.144C93.1667 48.1813 92.164 45.6213 92.164 42.464C92.164 38.752 93.5293 35.9147 96.26 33.952C98.9907 31.9893 102.937 31.008 108.1 31.008H111.556V29.536C111.556 27.5307 111.129 26.1653 110.276 25.44C109.423 24.672 107.929 24.288 105.796 24.288C104.687 24.288 103.343 24.4587 101.764 24.8C100.185 25.0987 98.564 25.5253 96.9 26.08L94.596 19.424C96.7293 18.6133 98.9053 17.9947 101.124 17.568C103.385 17.1413 105.476 16.928 107.396 16.928C112.26 16.928 115.823 17.9307 118.084 19.936C120.345 21.9413 121.476 24.9493 121.476 28.96V42.144ZM106.18 45.856C108.484 45.856 110.276 44.768 111.556 42.592V36.576H109.06C106.756 36.576 105.028 36.9813 103.876 37.792C102.767 38.6027 102.212 39.8613 102.212 41.568C102.212 42.9333 102.553 44 103.236 44.768C103.961 45.4933 104.943 45.856 106.18 45.856Z" fill="#353535"/>
<path d="M137.93 53.088C134.986 53.088 132.682 52.256 131.018 50.592C129.396 48.8853 128.586 46.4747 128.586 43.36V4.51201L138.698 3.42401V42.976C138.698 44.384 139.274 45.088 140.426 45.088C141.023 45.088 141.578 44.9813 142.09 44.768L144.074 51.936C142.239 52.704 140.191 53.088 137.93 53.088Z" fill="#353535"/>
<path d="M178.057 4.51201V52H169.097L168.585 48.032C166.196 51.4027 162.974 53.088 158.921 53.088C154.697 53.088 151.476 51.4667 149.257 48.224C147.081 44.9813 145.993 40.544 145.993 34.912C145.993 31.456 146.569 28.3627 147.721 25.632C148.873 22.9013 150.494 20.768 152.585 19.232C154.718 17.696 157.15 16.928 159.881 16.928C163.124 16.928 165.812 17.9947 167.945 20.128V3.42401L178.057 4.51201ZM162.057 45.664C164.404 45.664 166.366 44.384 167.945 41.824V27.168C167.134 26.1867 166.302 25.4613 165.449 24.992C164.638 24.5227 163.7 24.288 162.633 24.288C160.756 24.288 159.262 25.1627 158.153 26.912C157.044 28.6613 156.489 31.3493 156.489 34.976C156.489 38.944 156.958 41.7173 157.897 43.296C158.878 44.8747 160.265 45.664 162.057 45.664Z" fill="#353535"/>
<path d="M200.688 16.928C205.893 16.928 209.968 18.528 212.912 21.728C215.856 24.8853 217.328 29.3227 217.328 35.04C217.328 38.6667 216.645 41.8453 215.28 44.576C213.957 47.264 212.037 49.3547 209.52 50.848C207.045 52.3413 204.101 53.088 200.688 53.088C195.525 53.088 191.451 51.5093 188.464 48.352C185.52 45.152 184.048 40.6933 184.048 34.976C184.048 31.3493 184.709 28.192 186.032 25.504C187.397 22.7733 189.317 20.6613 191.792 19.168C194.309 17.6747 197.275 16.928 200.688 16.928ZM200.688 24.352C198.64 24.352 197.104 25.2267 196.08 26.976C195.056 28.6827 194.544 31.3493 194.544 34.976C194.544 38.688 195.035 41.3973 196.016 43.104C197.04 44.8107 198.597 45.664 200.688 45.664C202.736 45.664 204.272 44.8107 205.296 43.104C206.32 41.3547 206.832 38.6667 206.832 35.04C206.832 31.328 206.32 28.6187 205.296 26.912C204.315 25.2053 202.779 24.352 200.688 24.352Z" fill="#353535"/>
</svg>
