<svg width="28" height="44" viewBox="0 0 28 44" fill="none" xmlns="http://www.w3.org/2000/svg">
<path d="M3 44C2.2 44 1.5 43.7 0.9 43.1C0.3 42.5 0 41.8 0 41V3C0 2.2 0.3 1.5 0.9 0.9C1.5 0.3 2.2 0 3 0H25C25.8 0 26.5 0.3 27.1 0.9C27.7 1.5 28 2.2 28 3V41C28 41.8 27.7 42.5 27.1 43.1C26.5 43.7 25.8 44 25 44H3ZM3 36.5V41H25V36.5H3ZM14 40.25C14.4333 40.25 14.7917 40.1083 15.075 39.825C15.3583 39.5417 15.5 39.1833 15.5 38.75C15.5 38.3167 15.3583 37.9583 15.075 37.675C14.7917 37.3917 14.4333 37.25 14 37.25C13.5667 37.25 13.2083 37.3917 12.925 37.675C12.6417 37.9583 12.5 38.3167 12.5 38.75C12.5 39.1833 12.6417 39.5417 12.925 39.825C13.2083 40.1083 13.5667 40.25 14 40.25ZM3 33.5H25V7.5H3V33.5ZM3 4.5H25V3H3V4.5ZM3 36.5V41V36.5ZM3 4.5V3V4.5Z" fill="#0045F6"/>
</svg>
