<svg width="24" height="35" viewBox="0 0 24 35" fill="none" xmlns="http://www.w3.org/2000/svg">
<path d="M2.57143 35C1.88571 35 1.28571 34.7614 0.771428 34.2841C0.257143 33.8068 0 33.25 0 32.6136V2.38636C0 1.75 0.257143 1.19318 0.771428 0.715909C1.28571 0.238636 1.88571 0 2.57143 0H21.4286C22.1143 0 22.7143 0.238636 23.2286 0.715909C23.7429 1.19318 24 1.75 24 2.38636V32.6136C24 33.25 23.7429 33.8068 23.2286 34.2841C22.7143 34.7614 22.1143 35 21.4286 35H2.57143ZM2.57143 29.0341V32.6136H21.4286V29.0341H2.57143ZM12 32.017C12.3714 32.017 12.6786 31.9044 12.9214 31.679C13.1643 31.4536 13.2857 31.1686 13.2857 30.8239C13.2857 30.4792 13.1643 30.1941 12.9214 29.9688C12.6786 29.7434 12.3714 29.6307 12 29.6307C11.6286 29.6307 11.3214 29.7434 11.0786 29.9688C10.8357 30.1941 10.7143 30.4792 10.7143 30.8239C10.7143 31.1686 10.8357 31.4536 11.0786 31.679C11.3214 31.9044 11.6286 32.017 12 32.017ZM2.57143 26.6477H21.4286V5.96591H2.57143V26.6477ZM2.57143 3.57955H21.4286V2.38636H2.57143V3.57955ZM2.57143 29.0341V32.6136V29.0341ZM2.57143 3.57955V2.38636V3.57955Z" fill="#0045F6"/>
</svg>
