<svg width="212" height="38" viewBox="0 0 212 38" fill="none" xmlns="http://www.w3.org/2000/svg">
<path d="M7.82185 25.058H5.62625V37.2198H0V5.41546H7.78755C11.0352 5.41546 13.471 6.21095 15.0948 7.80193C16.7415 9.39291 17.5649 11.8253 17.5649 15.099C17.5649 17.149 17.1989 18.8623 16.4671 20.2391C15.7352 21.5853 14.5802 22.7327 13.0021 23.6812L19.04 37.2198H12.6934L7.82185 25.058ZM5.62625 19.872H7.99339C9.25129 19.872 10.189 19.4895 10.8065 18.7246C11.4469 17.9597 11.7671 16.7512 11.7671 15.099C11.7671 13.5692 11.424 12.4525 10.7379 11.7488C10.0746 11.0451 9.04545 10.6932 7.65032 10.6932H5.62625V19.872Z" fill="#353535"/>
<path d="M26.491 12.8502V37.2198H21.0705V12.8502H26.491ZM23.7464 0C24.6842 0 25.4503 0.397746 26.045 1.19324C26.6625 1.95813 26.9712 2.9372 26.9712 4.13044C26.9712 5.32367 26.6625 6.31804 26.045 7.11353C25.4503 7.87842 24.6842 8.26087 23.7464 8.26087C22.8087 8.26087 22.0426 7.87842 21.4479 7.11353C20.8533 6.31804 20.5559 5.32367 20.5559 4.13044C20.5559 2.9372 20.8533 1.95813 21.4479 1.19324C22.0426 0.397746 22.8087 0 23.7464 0Z" fill="#353535"/>
<path d="M41.422 12.07C43.0001 12.07 44.2351 12.7126 45.1271 13.9976C46.0191 15.2826 46.465 17.0878 46.465 19.413V37.2198H41.0446V20.6522C41.0446 19.4283 40.896 18.587 40.5986 18.128C40.3242 17.6385 39.9011 17.3937 39.3293 17.3937C38.2315 17.3937 37.1794 18.4493 36.1731 20.5604V37.2198H30.7527V12.8502H35.487L35.8644 15.7415C36.642 14.5177 37.4768 13.5998 38.3687 12.9879C39.2836 12.376 40.3013 12.07 41.422 12.07Z" fill="#353535"/>
<path d="M65.0299 30.1522C65.0299 31.07 65.1214 31.7432 65.3043 32.1715C65.5102 32.5998 65.8304 32.9211 66.2649 33.1353L65.1328 37.8623C64.0121 37.7399 63.0973 37.4187 62.3883 36.8986C61.6793 36.3478 61.1304 35.4911 60.7416 34.3285C59.5523 36.7762 57.7226 38 55.2526 38C53.4458 38 52.0049 37.2963 50.93 35.8889C49.855 34.4815 49.3176 32.6457 49.3176 30.3816C49.3176 27.7198 50.0494 25.6852 51.5132 24.2778C52.9769 22.8704 55.0925 22.1667 57.8598 22.1667H59.7124V21.1111C59.7124 19.6731 59.4837 18.694 59.0263 18.1739C58.5688 17.6232 57.7684 17.3478 56.6248 17.3478C56.0302 17.3478 55.3097 17.4702 54.4635 17.715C53.6173 17.9291 52.7482 18.2351 51.8562 18.6329L50.6212 13.8599C51.7647 13.2786 52.9312 12.8349 54.1205 12.529C55.3326 12.223 56.4533 12.07 57.4825 12.07C60.0898 12.07 61.9995 12.789 63.2116 14.2271C64.4238 15.6651 65.0299 17.8221 65.0299 20.6981V30.1522ZM56.8307 32.814C58.0657 32.814 59.0263 32.0338 59.7124 30.4734V26.1594H58.3744C57.1394 26.1594 56.2131 26.4501 55.5956 27.0314C55.001 27.6127 54.7037 28.5153 54.7037 29.7391C54.7037 30.7182 54.8866 31.4831 55.2526 32.0338C55.6414 32.5539 56.1674 32.814 56.8307 32.814Z" fill="#353535"/>
<path d="M73.8496 38C72.2715 38 71.0364 37.4034 70.1445 36.2101C69.2754 34.9863 68.8408 33.2576 68.8408 31.0242V3.16667L74.2612 2.38647V30.7488C74.2612 31.7585 74.57 32.2633 75.1875 32.2633C75.5077 32.2633 75.805 32.1868 76.0795 32.0338L77.143 37.1739C76.1595 37.7246 75.0617 38 73.8496 38Z" fill="#353535"/>
<path d="M95.3594 3.16667V37.2198H90.5565L90.282 34.3744C89.0013 36.7915 87.2745 38 85.1018 38C82.8376 38 81.1108 36.8374 79.9215 34.5121C78.7551 32.1868 78.1719 29.0048 78.1719 24.9662C78.1719 22.4879 78.4807 20.2697 79.0982 18.3116C79.7157 16.3535 80.5848 14.8237 81.7055 13.7222C82.849 12.6208 84.1526 12.07 85.6164 12.07C87.3546 12.07 88.7954 12.8349 89.939 14.3647V2.38647L95.3594 3.16667ZM86.7828 32.6763C88.0407 32.6763 89.0928 31.7585 89.939 29.9227V19.413C89.5044 18.7093 89.0585 18.1892 88.601 17.8527C88.1665 17.5161 87.6633 17.3478 87.0916 17.3478C86.0852 17.3478 85.2848 17.975 84.6901 19.2295C84.0955 20.4839 83.7981 22.4114 83.7981 25.0121C83.7981 27.8575 84.0497 29.8462 84.5529 30.9783C85.0789 32.1103 85.8222 32.6763 86.7828 32.6763Z" fill="#353535"/>
<path d="M107.49 12.07C110.281 12.07 112.465 13.2174 114.043 15.5121C115.621 17.7762 116.41 20.9581 116.41 25.058C116.41 27.6586 116.044 29.938 115.312 31.8961C114.603 33.8237 113.574 35.3229 112.225 36.3937C110.898 37.4646 109.32 38 107.49 38C104.723 38 102.539 36.868 100.938 34.6039C99.3598 32.3092 98.5708 29.1119 98.5708 25.0121C98.5708 22.4114 98.9253 20.1473 99.6343 18.2198C100.366 16.2617 101.395 14.7472 102.722 13.6763C104.071 12.6055 105.661 12.07 107.49 12.07ZM107.49 17.3937C106.393 17.3937 105.569 18.0209 105.02 19.2754C104.471 20.4992 104.197 22.4114 104.197 25.0121C104.197 27.6739 104.46 29.6167 104.986 30.8406C105.535 32.0644 106.37 32.6763 107.49 32.6763C108.588 32.6763 109.412 32.0644 109.961 30.8406C110.509 29.5862 110.784 27.6586 110.784 25.058C110.784 22.3961 110.509 20.4533 109.961 19.2295C109.434 18.0056 108.611 17.3937 107.49 17.3937Z" fill="#353535"/>
<path d="M137.587 4.63527C139.074 4.63527 140.389 4.92593 141.532 5.50725C142.699 6.08857 143.797 6.96055 144.826 8.12319L142.15 12.3913C141.441 11.657 140.743 11.1063 140.057 10.7391C139.371 10.372 138.639 10.1884 137.862 10.1884C136.261 10.1884 134.991 11.091 134.053 12.8961C133.139 14.7013 132.681 17.4855 132.681 21.2488C132.681 24.9509 133.139 27.7045 134.053 29.5097C134.991 31.2842 136.283 32.1715 137.93 32.1715C138.799 32.1715 139.588 31.9573 140.297 31.529C141.006 31.07 141.772 30.4275 142.596 29.6014L145.1 33.9155C144.208 35.1087 143.122 36.0878 141.841 36.8527C140.583 37.6176 139.188 38 137.656 38C135.46 38 133.55 37.3575 131.927 36.0725C130.303 34.7874 129.033 32.8905 128.118 30.3816C127.227 27.8422 126.781 24.7979 126.781 21.2488C126.781 17.7915 127.238 14.8084 128.153 12.2995C129.091 9.79066 130.371 7.89372 131.995 6.6087C133.642 5.29308 135.506 4.63527 137.587 4.63527Z" fill="#353535"/>
<path d="M154.729 12.07C157.519 12.07 159.703 13.2174 161.281 15.5121C162.859 17.7762 163.648 20.9581 163.648 25.058C163.648 27.6586 163.282 29.938 162.551 31.8961C161.842 33.8237 160.812 35.3229 159.463 36.3937C158.136 37.4646 156.558 38 154.729 38C151.961 38 149.777 36.868 148.176 34.6039C146.598 32.3092 145.809 29.1119 145.809 25.0121C145.809 22.4114 146.164 20.1473 146.873 18.2198C147.604 16.2617 148.634 14.7472 149.96 13.6763C151.31 12.6055 152.899 12.07 154.729 12.07ZM154.729 17.3937C153.631 17.3937 152.808 18.0209 152.259 19.2754C151.71 20.4992 151.435 22.4114 151.435 25.0121C151.435 27.6739 151.698 29.6167 152.224 30.8406C152.773 32.0644 153.608 32.6763 154.729 32.6763C155.827 32.6763 156.65 32.0644 157.199 30.8406C157.748 29.5862 158.022 27.6586 158.022 25.058C158.022 22.3961 157.748 20.4533 157.199 19.2295C156.673 18.0056 155.849 17.3937 154.729 17.3937Z" fill="#353535"/>
<path d="M173.288 12.07C174.592 12.07 175.815 12.3301 176.959 12.8502C178.102 13.3704 179.109 14.1047 179.978 15.0531L177.988 19.1377C176.501 17.8833 175.003 17.256 173.494 17.256C172.785 17.256 172.236 17.4243 171.847 17.7609C171.481 18.0668 171.298 18.5105 171.298 19.0918C171.298 19.5507 171.378 19.9332 171.538 20.2391C171.721 20.5145 172.076 20.8052 172.602 21.1111C173.128 21.4171 173.94 21.7842 175.038 22.2126C176.936 22.9469 178.342 23.9106 179.257 25.1039C180.195 26.2665 180.664 27.8881 180.664 29.9686C180.664 31.6208 180.309 33.0588 179.6 34.2826C178.891 35.4758 177.919 36.3937 176.684 37.0362C175.449 37.6787 174.077 38 172.567 38C171.035 38 169.606 37.6787 168.279 37.0362C166.976 36.3937 165.866 35.5064 164.951 34.3744L167.593 30.4275C169.125 32.0185 170.738 32.814 172.43 32.814C173.254 32.814 173.894 32.6151 174.351 32.2174C174.832 31.8196 175.072 31.2536 175.072 30.5193C175.072 29.938 174.98 29.4791 174.797 29.1425C174.614 28.806 174.26 28.5 173.734 28.2246C173.208 27.9187 172.373 27.5515 171.23 27.1232C169.423 26.4195 168.073 25.4404 167.181 24.186C166.289 22.9316 165.843 21.3712 165.843 19.5048C165.843 18.0974 166.141 16.843 166.735 15.7415C167.353 14.6095 168.222 13.7222 169.343 13.0797C170.486 12.4066 171.801 12.07 173.288 12.07Z" fill="#353535"/>
<path d="M194.88 36.0725C194.217 36.6844 193.439 37.1586 192.547 37.4952C191.678 37.8317 190.809 38 189.94 38C185.961 37.9694 183.971 35.0322 183.971 29.1884V17.8986H181.398V12.8502H183.971V7.57246L189.391 6.74638V12.8502H193.577L192.993 17.8986H189.391V29.0966C189.391 30.2287 189.529 31.0395 189.803 31.529C190.077 32.0185 190.512 32.2633 191.107 32.2633C191.724 32.2633 192.376 32.0032 193.062 31.4831L194.88 36.0725Z" fill="#353535"/>
<path d="M210.765 30.1522C210.765 31.07 210.856 31.7432 211.039 32.1715C211.245 32.5998 211.565 32.9211 212 33.1353L210.868 37.8623C209.747 37.7399 208.832 37.4187 208.123 36.8986C207.414 36.3478 206.865 35.4911 206.477 34.3285C205.287 36.7762 203.458 38 200.988 38C199.181 38 197.74 37.2963 196.665 35.8889C195.59 34.4815 195.053 32.6457 195.053 30.3816C195.053 27.7198 195.785 25.6852 197.248 24.2778C198.712 22.8704 200.828 22.1667 203.595 22.1667H205.447V21.1111C205.447 19.6731 205.219 18.694 204.761 18.1739C204.304 17.6232 203.503 17.3478 202.36 17.3478C201.765 17.3478 201.045 17.4702 200.199 17.715C199.352 17.9291 198.483 18.2351 197.591 18.6329L196.356 13.8599C197.5 13.2786 198.666 12.8349 199.856 12.529C201.068 12.223 202.188 12.07 203.218 12.07C205.825 12.07 207.735 12.789 208.947 14.2271C210.159 15.6651 210.765 17.8221 210.765 20.6981V30.1522ZM202.566 32.814C203.801 32.814 204.761 32.0338 205.447 30.4734V26.1594H204.11C202.874 26.1594 201.948 26.4501 201.331 27.0314C200.736 27.6127 200.439 28.5153 200.439 29.7391C200.439 30.7182 200.622 31.4831 200.988 32.0338C201.376 32.5539 201.902 32.814 202.566 32.814Z" fill="#353535"/>
</svg>
